<svg xmlns="http://www.w3.org/2000/svg" viewBox="0 0 1554.197998 2507.9672852">
  <defs>
    <path id="monkey" fill="#FF0000" stroke="#770000" stroke-width="4" d="M133.72229,220.0308838c10.1072693-4.7701569,18.3071899-11.9723511,25.3422699-20.194519
c5.7975311-6.7758179,10.3342743-14.6417694,15.3083954-22.105484c2.2397461-3.3607025,4.4660187-6.79039,6.1255798-10.4486847
c0.678421-1.4954834,0.132782-3.7597656-0.3577881-5.5356903c-2.3191376-8.3949738-9.2252045-13.4202271-15.2654114-18.614563
c-2.7922516-2.4011993-8.2421722-2.5177917-12.4194336-2.3098297c-5.9622498,0.2967682-11.1304169,0.3730316-16.3492279-3.7720184
c-4.4376831-3.5246429-4.819046-7.345993-4.4016113-12.0367126c0.0145874-0.1638336,0.0465393-0.3417358,0.1255646-0.4819794
c5.8478851-10.3768005,1.9039764-20.6367188-0.7790375-30.7014084c-2.7378235-10.27005-2.3828735-20.3581467,0.0356903-30.4654465
c2.585144-10.803463,7.1595459-20.8214035,13.8554993-29.6750259c2.286438-3.0232372,5.5034637-5.700449,8.8538818-7.4900284
c8.0476837-4.2985191,16.1084137-9.007473,24.7436218-11.6720858c13.9125671-4.2930765,28.0526428-4.0879364,40.7834167,4.3747263
c4.9425201,3.2854958,9.1550903,7.6500759,13.9261627,11.22122c2.1155548,1.5835304,4.8217621,3.462244,7.207962,3.3939266
c6.8002472-0.1946831,13.4805603,0.221302,18.4431763,5.0459557c2.499939,2.4304924,4.4296265,6.6269684,4.5072021,10.072361
c0.0978699,4.3492165-1.917511,8.7575912-3.0967407,13.12006c-0.8451538,3.1266441,2.2362976,11.5938606,4.9029541,13.2257347
c2.7905884,1.7077103,9.8848572-0.0325317,12.9421692-3.8375626c7.3052063-9.0919189,14.6842957-18.1660309,21.3351135-27.7329788
c11.3137512-16.274435,26.0235596-27.6546707,44.6175232-34.6015472
c12.6928406-4.7421389,25.4693604-7.2139091,39.0262451-6.7551107
c11.7009888,0.3959889,22.8373413,2.7336755,32.8587341,8.6226778
c7.4348145,4.3690186,14.4961243,9.5224257,21.1726074,14.9984751
c10.2902527,8.4401493,17.0024109,19.6113758,23.4675293,31.1809177
c5.1685791,9.2495499,8.1293945,18.8288345,9.0386963,29.0533524c0.5260315,5.9139328-0.7945862,11.9701462-0.9489136,17.9709396
c-0.3538818,13.7591782-8.1643372,24.8279877-13.3262939,36.7975311
c-1.9275818,4.4696198-5.6850891,8.2749786-9.0726013,11.9556885c-3.5594177,3.8674622-8.6308594,2.8495178-11.1784363-1.6466522
c-2.3329468-4.1173096-3.2982788-8.1226349-2.5491333-13.1157074c1.303833-8.6908417,2.2879333-17.6090317,1.8166199-26.3461838
c-0.7721863-14.3175659-0.4033203-29.0469513-8.009491-42.1231232
c-4.3702393-7.5130653-10.9778442-12.4965172-18.6080933-16.3753624
c-12.5136108-6.3613358-25.6853943-5.4533119-38.9814453-3.9111519
c-13.636322,1.5815544-25.7771912,6.9098892-35.4389648,16.3799744
c-5.2244568,5.1208267-9.1645813,11.9246445-12.4340515,18.5830154
c-5.3558044,10.9073792-9.9534912,22.216301-14.2646179,33.5857315c-1.0026855,2.6442642-0.494751,6.7191238,0.8989258,9.2731094
c8.1741943,14.9793549,17.284668,29.4608307,25.1239014,44.6048126
c4.5778503,8.8435364,7.1542664,18.7019501,11.0493469,27.9271698
c2.8912964,6.8478546,5.5755615,13.3978729,11.8634033,18.8235168
c9.412262,8.1216125,17.0145874,18.3615875,25.2526855,27.8172913c7.800415,8.9532928,10.0490723,19.214859,6.8948059,30.7250824
c-2.259613,8.2453613-4.1871338,16.5813904-6.4130554,24.8364258c-1.3166199,4.8826904,1.637085,11.0762634,6.1635742,13.4865723
c7.6065063,4.0503845,15.4436951,7.8586731,22.4258118,12.8328552
c6.1005859,4.3462219,10.4597473,10.7032776,12.8769836,17.9850464
c1.9708862,5.9371033-1.4723816,11.6420593-7.4360962,13.2507324c-3.1543579,0.8509521-6.2070312,2.8895874-9.3153076,2.9099731
c-4.6139832,0.0301819-9.3187866-0.9269409-13.835022-2.0609741c-5.8799438-1.4764709-11.5036011-4.1285095-17.4317017-5.226593
c-13.1448975-2.434845-26.3892517-4.3706055-39.6338196-6.2177124
c-11.9074707-1.660614-18.6901245-9.5339966-18.0107422-21.6940002c0.3363342-6.02005,1.0545959-12.0192566,1.3722229-18.039917
c0.5364075-10.1676025-4.7433777-15.2619629-12.3633118-13.5080566
c-8.8358459,2.0337524-17.5013733,1.3304138-26.0639343-1.5292053c-5.2364197-1.7488098-9.475708,1.1029663-13.1238708,3.9776306
c-1.3436279,1.0587769-1.3796692,4.8467102-0.7891846,7.064209c1.173645,4.4072571,4.0380554,8.466217,4.6803284,12.8903198
c1.111908,7.6595459-4.3269653,12.9498901-8.8800659,18.0827637c-5.2956543,5.9699707-13.0825348,4.9786987-20.0892639,5.8363037
c-7.0876923,0.8675232-14.2931061,1.0063782-21.2944641,2.2936096
c-11.3622131,2.0889282-21.8206482,6.4675598-31.5745087,12.940979c-9.2315979,6.126709-19.563858,5.744812-29.6188202,1.8345032
c-4.1679535-1.6208496-5.1517944-11.26651-2.6726532-15.9478455c4.1461487-7.8292847,10.8644562-13.0669861,18.0957336-17.2541199
c6.1616669-3.5677795,13.4302368-5.172699,20.0348358-8.0464478c3.820755-1.6624451,8.3665771-3.3126526,10.6864624-6.3970947
c3.8327637-5.0959473-0.5066833-9.7051392-3.5915833-13.6383362
c-6.5803833-8.3898926-11.8479462-17.1088562-13.1779327-28.1039124c-0.803421-6.641449,2.934082-10.8972168,6.1134644-15.2767181
c5.3503723-7.3697815,12.1581573-13.3635406,20.3432312-17.7458038c2.6494598-1.4185028,4.904129-3.8066711,6.9213867-6.1163483
c2.681015-3.0696106,1.0076752-11.7134247-3.3321075-15.7956543c-2.7918396-2.6261139-6.4549713-3.3853607-9.9432983-0.7537231
c-6.7842102,5.118103-13.4799805,10.3540649-20.2917786,15.4347992
c-6.8208923,5.0874939-13.7594604,10.0169373-20.6035461,15.0737305c-2.7192535,2.0091858-5.1213837,4.520462-8.0148773,6.2082367
c-11.7905884,6.8774567-25.067215,9.4547882-38.0559235,12.9393463
c-15.6832886,4.2074585-31.4856339,5.3369141-47.4276047,2.4451904
c-11.7650681-2.1340332-22.4855232-6.805603-31.6747551-14.7774811
c-5.3376122-4.6305237-11.2001801-8.6540222-16.5660686-13.2544861c-2.7882156-2.3905182-5.3433666-5.2109375-7.4323502-8.2322083
C8.4251032,214.5120392,0.5839623,198.6439362,2.215369,179.5167694
c2.0291288-23.7899017,13.7383776-43.1071472,28.7514057-60.4496841
c4.887886-5.6463013,10.8622742-11.8266296,19.7986069-12.3471451c4.936718-0.2875671,8.9304047,2.8549194,9.1709595,7.7970428
c0.355545,7.3041534-2.8170891,13.3913193-6.6797447,19.0988007c-3.983284,5.885788-8.1293602,11.7353516-12.8314667,17.0453033
c-9.8404446,11.1125793-10.6770649,22.7883453-5.3629189,36.4404602
c4.9905167,12.8206482,14.2646484,21.4653473,24.1348991,29.9577637
c8.6470757,7.4399719,18.5148582,12.5704346,29.904644,13.8269501c7.733139,0.8531036,15.5242081,0.6689758,22.9983826-2.5205231
C119.2001877,225.3358612,126.5066147,222.7897491,133.72229,220.0308838z
" />
  </defs>
  <path fill="#FFF200" stroke="#FFAA00" stroke-width="10" d="M777.098999,2502.9672852c507.1630859,0,635.8463135-109.7590332,635.8463135-109.7590332
l94.619873-609.3526611l41.6328125-15.1392822v-155.1767578h-34.0631104V894.4277954h34.0631104V739.2510376l-41.6328125-15.1392212
l-94.619873-609.3526611c0,0-128.6832275-109.7591705-635.8463135-109.7591705S141.2527618,114.7591705,141.2527618,114.7591705
L46.6327896,724.1118164L5,739.2510376v155.1767578h34.0631905v719.1117554H5v155.1767578l41.6327896,15.1392822
l94.6199722,609.3526611C141.2527618,2393.208252,269.9359436,2502.9672852,777.098999,2502.9672852z
" />
  <use href="#monkey" transform="translate(535.757350696376 1019.9321407035783) rotate(8664.03575838326 247.56390427828566 184.25781264457152)" />
  <use href="#monkey" transform="translate(1061.9590668933708 1406.6798013652656) rotate(-7828.691682698816 247.56390427828566 184.25781264457152)" />
  <use href="#monkey" transform="translate(547.2242081763345 1793.9466336668274) rotate(-54.04462089949382 247.56390427828566 184.25781264457152)" />
  <use href="#monkey" transform="translate(1036.7020463316517 1830.992995261581) rotate(-2601.300836105726 247.56390427828566 184.25781264457152)" />
  <use href="#monkey" transform="translate(242.68198405901288 2101.8175543402626) rotate(-4822.974337296063 247.56390427828566 184.25781264457152)" />
  <use href="#monkey" transform="translate(614.1722928432692 89.67538208396752) rotate(211.31982577304848 247.56390427828566 184.25781264457152)" />
  <use href="#monkey" transform="translate(50.18383106365527 1017.5108607085152) rotate(236.8459156736878 247.56390427828566 184.25781264457152)" />
  <use href="#monkey" transform="translate(413.9061434017385 1349.638873389317) rotate(7404.062668951829 247.56390427828566 184.25781264457152)" />
  <use href="#monkey" transform="translate(30.083778686138746 1562.3318801766532) rotate(952.8934565458701 247.56390427828566 184.25781264457152)" />
  <use href="#monkey" transform="translate(651.7763828375035 709.9964340124485) rotate(5964.8875997093155 247.56390427828566 184.25781264457152)" />
</svg>
